<svg height="25" viewBox="0 0 480.06675 480" width="25" xmlns="http://www.w3.org/2000/svg"><path d="m197.433594 215.539062c-15.179688-36.753906-52.3125-56.296874-82.941406-43.648437-30.628907 12.648437-43.152344 52.699219-27.972657 89.453125 15.175781 36.753906 52.308594 56.292969 82.9375 43.644531 30.628907-12.648437 43.152344-52.695312 27.976563-89.449219zm0 0" fill="#d6d6d4"/><path d="m184.074219 244.03125c0 19.878906-16.117188 36-36 36-19.882813 0-36-16.121094-36-36 0-19.882812 16.117187-36 36-36 19.882812 0 36 16.117188 36 36zm0 0" fill="#f98500"/><path d="m116.765625 199.886719c-28.117187-28.117188-69.90625-31.917969-93.335937-8.488281-23.43359425 23.433593-19.632813 65.222656 8.484374 93.339843 28.117188 28.117188 69.90625 31.917969 93.335938 8.484375 23.433594-23.429687 19.632812-65.21875-8.484375-93.335937zm0 0" fill="#e0e0de"/><path d="m113.171875 245.140625c0 19.882813-16.121094 36-36 36-19.882813 0-36-16.117187-36-36s16.117187-36 36-36c19.878906 0 36 16.117187 36 36zm0 0" fill="#f98500"/><path d="m136.066406 440.039062h208v32h-208zm0 0" fill="#e04343"/><path d="m408.066406 244.039062c0 37.554688-30.445312 68-68 68-37.554687 0-68-30.445312-68-68 0-37.554687 30.445313-68 68-68 37.554688 0 68 30.445313 68 68zm0 0" fill="#b0564c"/><path d="m340.066406 288.039062c-24.300781 0-44-19.699218-44-44 0-24.300781 19.699219-44 44-44 24.300782 0 44 19.699219 44 44-.027344 24.289063-19.710937 43.972657-44 44zm0-72c-15.464844 0-28 12.535157-28 28 0 15.460938 12.535156 28 28 28s28-12.539062 28-28c0-15.464843-12.535156-28-28-28zm0 0" fill="#b9685f"/><path d="m411.292969 166.621094 60.773437 52.023437-93.644531 109.390625-60.773437-52.023437zm0 0" fill="#3d4d63"/><path d="m344.066406 440.039062h-208c-75.222656-18.808593-127.996094-86.398437-128-163.9375v-28.0625h464v28.0625c-.003906 77.539063-52.777344 145.128907-128 163.9375zm0 0" fill="#e94f4f"/><path d="m368.066406 248.039062v28.0625c-.003906 77.539063-52.777344 145.128907-128 163.9375h104c75.222656-18.808593 127.996094-86.398437 128-163.9375v-28.0625zm0 0" fill="#e04343"/><path d="m40.203125 324.125c-2.058594-5.875-3.734375-11.875-5.015625-17.96875l15.65625-3.292969c1.144531 5.421875 2.636719 10.765625 4.460938 16zm0 0" fill="#f26666"/><path d="m107.929688 403.582031c-26.332032-14.203125-47.582032-36.257812-60.800782-63.097656l14.335938-7.09375c11.765625 23.878906 30.683594 43.496094 54.121094 56.121094zm0 0" fill="#f26666"/><path d="m472.066406 40.039062h-336v-24l336-8zm0 0" fill="#e94f4f"/><path d="m299.347656 67.957031 172.71875 4.082031v-32h-336v24l36.238282.878907 31.761718.71875" fill="#cf3a3a"/><path d="m176.019531 248.039062c0-1.035156.046875-2.105468.046875-3.203124 0-25.597657-8-25.597657-8-51.199219 0-25.597657 8-25.597657 8-51.199219s-8-25.601562-8-51.152344c-.167968-9.265625 1.355469-18.480468 4.496094-27.199218l55.863281-.800782 3.640625 184.511719zm0 0" fill="#ffb531"/><path d="m304.019531 248.039062c0-1.035156.046875-2.105468.046875-3.203124 0-25.597657-8-25.597657-8-51.199219 0-25.597657 8-25.597657 8-51.199219s-8-25.601562-8-51.152344c0-25.550781 8-25.597656 8-51.199218h-96c0 25.601562-8 25.601562-8 51.199218 0 25.601563 8 25.601563 8 51.152344s-8 25.601562-8 51.199219c0 25.601562 8 25.601562 8 51.199219 0 1.128906 0 2.203124-.046875 3.203124zm0 0" fill="#ffb531"/><g fill="#f7a116"><path d="m215.21875 246.558594-16-.503906c0-.953126.046875-1.953126.046875-2.992188.207031-7.902344-1.011719-15.773438-3.609375-23.242188-3.046875-9.011718-4.507812-18.484374-4.316406-28-.175782-9.515624 1.3125-18.992187 4.398437-28 2.605469-7.449218 3.851563-15.308593 3.671875-23.199218.203125-7.886719-1.019531-15.746094-3.609375-23.199219-3.054687-9.011719-4.515625-18.488281-4.320312-28-.167969-9.519531 1.320312-18.992187 4.402343-28 2.605469-7.449219 3.851563-15.308594 3.671876-23.199219h16c.167968 9.519532-1.324219 18.992188-4.410157 28-2.605469 7.449219-3.847656 15.308594-3.664062 23.199219-.203125 7.886719 1.015625 15.746094 3.601562 23.199219 3.058594 9.011718 4.523438 18.488281 4.328125 28 .164063 9.519531-1.324218 18.992187-4.398437 28-2.617188 7.449218-3.859375 15.308594-3.671875 23.199218-.203125 7.886719 1.019531 15.746094 3.597656 23.203126 3.058594 9.007812 4.523438 18.484374 4.328125 28 0 1.269531 0 2.421874-.046875 3.535156zm0 0"/><path d="m247.21875 246.605469-16-.511719c0-.953125.046875-1.953125.046875-2.992188.207031-7.902343-1.015625-15.773437-3.609375-23.238281-3.046875-9.015625-4.507812-18.488281-4.316406-28-.175782-9.519531 1.3125-18.996093 4.398437-28 2.605469-7.453125 3.851563-15.308593 3.671875-23.203125.207032-7.886718-1.015625-15.746094-3.609375-23.199218-3.054687-9.011719-4.515625-18.484376-4.320312-28-.167969-9.515626 1.320312-18.992188 4.402343-28 2.609376-7.449219 3.851563-15.308594 3.671876-23.199219h16c.164062 9.519531-1.328126 18.992187-4.410157 28-2.605469 7.449219-3.847656 15.308593-3.664062 23.199219-.203125 7.886718 1.015625 15.746093 3.601562 23.199218 3.058594 9.011719 4.523438 18.488282 4.328125 28 .164063 9.519532-1.324218 18.992188-4.398437 28-2.617188 7.449219-3.859375 15.308594-3.671875 23.203125-.207032 7.898438 1.011718 15.769531 3.597656 23.238281 3.054688 9.011719 4.519531 18.488282 4.328125 28 0 1.230469 0 2.390626-.046875 3.503907zm0 0"/><path d="m311.21875 246.695312-16-.511718c0-.953125.046875-1.953125.046875-2.992188.203125-7.890625-1.019531-15.75-3.609375-23.203125-3.050781-9.011719-4.515625-18.484375-4.316406-28-.175782-9.515625 1.3125-18.992187 4.398437-28 2.609375-7.449219 3.851563-15.308593 3.671875-23.199219.207032-7.886718-1.015625-15.746093-3.609375-23.199218-3.054687-9.011719-4.515625-18.488282-4.320312-28-.167969-9.519532 1.320312-18.992188 4.402343-28 2.609376-7.449219 3.851563-15.308594 3.671876-23.199219h16c.164062 9.519531-1.324219 18.992187-4.410157 28-2.605469 7.449219-3.847656 15.308594-3.664062 23.199219-.203125 7.886718 1.015625 15.746094 3.601562 23.199218 3.058594 9.011719 4.523438 18.488282 4.328125 28 .164063 9.519532-1.324218 18.992188-4.398437 28-2.617188 7.449219-3.859375 15.308594-3.671875 23.199219-.203125 7.886719 1.015625 15.746094 3.597656 23.203125 3.054688 9.011719 4.519531 18.484375 4.328125 28 0 1.238282 0 2.390625-.046875 3.503906zm0 0"/><path d="m279.21875 246.644531-16-.503906c0-.949219.046875-1.949219.046875-2.992187.207031-7.898438-1.015625-15.773438-3.609375-23.238282-3.046875-9.011718-4.507812-18.488281-4.316406-28-.175782-9.519531 1.3125-18.996094 4.398437-28 2.605469-7.449218 3.851563-15.308594 3.671875-23.199218.203125-7.886719-1.019531-15.75-3.609375-23.199219-3.054687-9.015625-4.515625-18.488281-4.320312-28-.164063-9.507813 1.324219-18.96875 4.402343-27.960938 2.605469-7.449219 3.851563-15.308593 3.671876-23.199219h16c.167968 9.515626-1.324219 18.992188-4.410157 28-2.605469 7.449219-3.847656 15.308594-3.664062 23.199219-.203125 7.886719 1.015625 15.746094 3.601562 23.199219 3.058594 9.011719 4.523438 18.484375 4.328125 28 .164063 9.515625-1.324218 18.992188-4.398437 28-2.617188 7.449219-3.859375 15.308594-3.671875 23.199219-.203125 7.886719 1.019531 15.746093 3.597656 23.199219 3.054688 9.011718 4.519531 18.488281 4.328125 28 0 1.234374 0 2.394531-.046875 3.496093zm0 0"/></g><path d="m472.066406 272.039062h-464v4.0625c0 4 .222656 8 .503906 11.9375h462.992188c.28125-3.960937.503906-7.929687.503906-11.9375zm0 0" fill="#ffb531"/><path d="m50.84375 302.863281-15.65625 3.292969c1.28125 6.09375 2.957031 12.09375 5.015625 17.96875l15.101563-5.277344c-1.824219-5.230468-3.316407-10.570312-4.460938-15.984375zm0 0"/><path d="m61.425781 333.390625-14.335937 7.09375c13.226562 26.847656 34.496094 48.902344 60.839844 63.097656l7.617187-14.070312c-23.4375-12.625-42.355469-32.242188-54.121094-56.121094zm0 0"/><path d="m471.875.0390625-336 7.9999995c-4.34375.101563-7.808594 3.65625-7.808594 8v48c0 4.34375 3.464844 7.894532 7.808594 8l25.984375.605469c-1.269531 6.117188-1.871094 12.347657-1.792969 18.59375-.179687 9.515625 1.296875 18.988281 4.359375 28 2.605469 7.449219 3.839844 15.308594 3.640625 23.199219.195313 7.890625-1.039062 15.75-3.640625 23.199219-.183593.601562-.375 1.21875-.558593 1.832031-16.214844-8.613281-35.394532-9.683594-52.464844-2.925781-6.214844 2.566406-11.945313 6.1875-16.9375 10.695312-27.679688-12.152343-57.878906-8.359375-76.703125 10.472657-14.695313 15.46875-20.804688 37.195312-16.320313 58.054687-.867187 1.257813-1.3437498 2.746094-1.3749998 4.273437v28.0625c-.0546874 78.863282 52.1835938 148.203126 127.9999998 169.902344v26.035156c0 4.417969 3.582032 8 8 8h208c4.417969 0 8-3.582031 8-8v-26.035156c75.816406-21.699218 128.054688-91.039062 128-169.902344v-28.0625c0-4.417968-3.582031-8-8-8h-7.746094l13.824219-16.160156c2.875-3.359375 2.480469-8.410156-.878906-11.28125l-60.800781-52.070312c-1.617188-1.367188-3.703125-2.050782-5.816406-1.90625-2.117188.164062-4.082032 1.164062-5.460938 2.777344l-19.058594 22.269531c-23.042968-17.6875-54.1875-20.609375-80.117187-7.511719.511719-1.980469 1.085937-3.855469 1.695312-5.789062 3.0625-9.011719 4.539063-18.484376 4.359375-28 .179688-9.515626-1.292968-18.992188-4.359375-28-2.597656-7.429688-3.832031-15.265626-3.640625-23.128907-.089844-5.070312.382813-10.136719 1.40625-15.105469l166.402344 3.929688h.191406c4.417969 0 8-3.582031 8-8v-64.023438c.003906-2.15625-.863281-4.222656-2.398437-5.730468-1.535157-1.523438-3.632813-2.3437502-5.792969-2.2695315zm-327.808594 23.8164065 320-7.625v15.808593h-320zm320 248.183593h-448v-16h448zm-414.289062-32c1.882812-10.199218 9.265625-18.515624 19.171875-21.589843 9.90625-3.078125 20.699219-.40625 28.027343 6.933593 2.3125 2.285157 4.1875 4.976563 5.523438 7.941407 1.039062 2.128906 1.789062 4.386719 2.222656 6.714843zm88.039062-25.3125c10.355469-2.136718 21.03125 1.75 27.585938 10.046876 1.5 4.957031 2.355468 10.089843 2.542968 15.265624h-20.878906c-1.699218-8.882812-4.824218-17.429687-9.25-25.3125zm122.609375-95.535156c2.605469 7.449219 3.839844 15.308594 3.640625 23.199219.195313 7.886719-1.039062 15.75-3.640625 23.199219-3.066406 9.011718-4.539062 18.484375-4.359375 28-.179687 9.515625 1.296875 18.988281 4.359375 28 2.070313 5.945312 3.257813 12.160156 3.519531 18.449218h-16c-.273437-7.902343-1.710937-15.71875-4.261718-23.203124-2.601563-7.472657-3.824219-15.359376-3.617188-23.269532-.199218-7.890625 1.035156-15.75 3.640625-23.199218 3.0625-9.011719 4.539063-18.484376 4.359375-28 .179688-9.515626-1.292968-18.992188-4.359375-28-2.597656-7.429688-3.832031-15.265626-3.640625-23.128907-.199218-7.890625 1.035156-15.75 3.640625-23.199219 2.1875-6.46875 3.550781-13.191406 4.054688-20h16c-.488281 5.179688-1.597657 10.28125-3.304688 15.199219-3.074219 9.007813-4.5625 18.480469-4.390625 28-.175781 9.5 1.300782 18.957031 4.359375 27.953125zm-32 0c2.605469 7.449219 3.839844 15.308594 3.640625 23.199219.195313 7.886719-1.039062 15.75-3.640625 23.199219-3.066406 9.011718-4.539062 18.484375-4.359375 28-.179687 9.515625 1.296875 18.988281 4.359375 28 2.070313 5.945312 3.257813 12.160156 3.519531 18.449218h-16v-.097656c-.101562-2.488281-.304687-4.695312-.542968-6.765625 0-.320312-.070313-.664062-.113282-.984375-.253906-1.9375-.558593-3.699218-.894531-5.335937l-.191406-.898438c-.351563-1.597656-.722656-3.09375-1.113281-4.488281-.0625-.230469-.136719-.453125-.199219-.6875-.402344-1.375-.800781-2.703125-1.199219-4-2.59375-7.457031-3.824218-15.320312-3.625-23.214844-.199218-7.890625 1.035156-15.75 3.640625-23.199218 3.0625-9.011719 4.539063-18.484376 4.359375-28 .179688-9.515626-1.292968-18.992188-4.359375-28-2.597656-7.429688-3.832031-15.265626-3.640625-23.128907-.199218-7.890625 1.035156-15.75 3.640625-23.199219.328125-1.058593.664063-2.152343.992188-3.28125.109375-.367187.214843-.726562.320312-1.105468.351563-1.230469.695313-2.519532 1.015625-3.902344.054688-.230469.101563-.496094.160156-.734375.269532-1.261719.539063-2.609375.800782-4.050781.046875-.34375.109375-.671875.167968-1.023438.238282-1.660156.4375-3.453125.597657-5.382812 0-.183594.039062-.320313.054687-.503906h15.945313c-.488281 5.179687-1.597657 10.28125-3.304688 15.199218-3.074219 9.003906-4.558593 18.472656-4.390625 27.984375-.175781 9.5 1.300782 18.957031 4.359375 27.953125zm109.472657 120.847656h-25.425782c1.964844-13.742187 13.714844-23.960937 27.59375-24 5.207032.003907 10.308594 1.488282 14.703125 4.285157zm-44.433594-15.066406c.066406.242188.136718.480469.210937.722656.328125 1.152344.621094 2.335938.902344 3.574219.054687.25.105469.503907.160156.761719.273438 1.300781.519531 2.664062.710938 4.175781 0 .160157 0 .335938.058593.496094.175782 1.453125.308594 3.054687.40625 4.796875v.539062h-16c-.273437-7.902343-1.710937-15.71875-4.265624-23.203124-2.585938-7.476563-3.800782-15.359376-3.582032-23.269532-.199218-7.890625 1.035156-15.75 3.640625-23.199218 3.0625-9.011719 4.539063-18.484376 4.359375-28 .179688-9.515626-1.292968-18.992188-4.359375-28-2.597656-7.429688-3.832031-15.265626-3.640625-23.128907-.199218-7.890625 1.035156-15.75 3.640625-23.199219 2.1875-6.46875 3.550781-13.191406 4.054688-20h16c0 .183594 0 .34375-.054688.527344-.121093 1.207032-.265625 2.335938-.425781 3.398438-.054688.328125-.101562.65625-.160156.96875-.199219 1.183594-.421875 2.3125-.671875 3.375l-.0625.234375c-.25 1.039062-.519531 2.03125-.800781 3.015625l-.214844.75c-.296875.976562-.59375 1.945312-.90625 2.9375-3.078125 9.003906-4.566406 18.476562-4.398438 27.992187-.179687 9.515625 1.296875 18.988281 4.359375 28 2.605469 7.449219 3.839844 15.308594 3.640625 23.199219.195313 7.890625-1.039062 15.75-3.640625 23.199219-3.066406 9.011719-4.539062 18.484375-4.359375 28-.179687 9.515625 1.296875 18.992187 4.359375 28 .359375 1.082031.703125 2.199219 1.039063 3.335937zm-149.398438-176.933594h55.664063c-.261719 3.191407-.796875 6.355469-1.601563 9.453126l-54.0625-1.261719zm49.601563 25.359376c-1.144531 5.875-1.683594 11.855468-1.601563 17.839843-.179687 9.515625 1.296875 18.988281 4.359375 28 2.605469 7.449219 3.839844 15.308594 3.640625 23.199219.195313 7.890625-1.039062 15.75-3.640625 23.199219-3.066406 9.011719-4.539062 18.484375-4.359375 28-.179687 9.515625 1.296875 18.992187 4.359375 28 2.066407 5.929687 3.253907 12.128906 3.519531 18.402343h-16c-.273437-7.902343-1.710937-15.71875-4.261718-23.203124-2.601563-7.472657-3.824219-15.359376-3.617188-23.269532-.199218-7.890625 1.035156-15.75 3.640625-23.199218 3.0625-9.011719 4.539063-18.484376 4.359375-28 .179688-9.515626-1.292968-18.992188-4.359375-28-2.597656-7.429688-3.832031-15.265626-3.640625-23.128907-.144531-6.128906.578125-12.25 2.144532-18.175781zm-76.160157 105.878906c14.230469-5.425782 30.199219-3.753906 43 4.503906-.273437 2.878906-.441406 6.097656-.441406 9.785156 0 2.96875.121094 5.597656.304688 8-10.175782-4.25-21.582032-4.5-31.9375-.703125-1.894532-2.335937-3.90625-4.570312-6.03125-6.699219-3.953125-3.890624-8.238282-7.433593-12.800782-10.589843 2.476563-1.707031 5.125-3.148438 7.90625-4.296875zm-88.425781 17.777344c15.089844-15.089844 40.574219-17.175782 63.480469-5.183594 6.84375 3.59375 13.105469 8.203125 18.566406 13.671875 3.0625 3.027343 5.832032 6.332031 8.273438 9.878906 5.367187 7.390625 9.257812 15.75 11.457031 24.617187h-10.066406c-.488281-4.722656-1.789063-9.324218-3.847657-13.601562-2.117187-4.625-5.050781-8.832031-8.664062-12.414062-6.550781-6.601563-15.046875-10.921876-24.238281-12.320313-11.824219-1.882813-23.902344 1.148437-33.4375 8.386719-9.539063 7.234375-15.707031 18.054687-17.074219 29.949218h-16.5625c-3.175781-15.445312 1.339844-31.472656 12.113281-42.984374zm306.984375 266.984374h-192v-16h192zm7-32h-206c-66.949218-17.097656-115.472656-75.085937-120.496094-144h446.992188c-5.023438 68.914063-53.546875 126.902344-120.496094 144zm69.070313-254.160156 48.648437 41.671875-17.519531 20.488281h-84.304687zm-36.4375 17.984375-10.472657 12.238281c-18.25-13.003906-43.398437-9.992187-58.0625 6.953126-1.988281-6.136719-3.015624-12.542969-3.050781-18.992188 21.167969-15.957031 50.328125-16.039062 71.585938-.199219zm88.367187-132.007812-154.144531-3.648438c.941406-4 1.554687-8.070312 1.839844-12.167969h152.304687zm0 0"/></svg>